<?xml version="1.0" encoding="utf-8"?>
<!-- Generator: Adobe Illustrator 22.0.0, SVG Export Plug-In . SVG Version: 6.00 Build 0)  -->
<svg version="1.1" id="ae7ad495-543d-4c4b-9483-8059c5566fe6"
	 xmlns="http://www.w3.org/2000/svg" xmlns:xlink="http://www.w3.org/1999/xlink" x="0px" y="0px" viewBox="0 0 1009.5 839.6"
	 style="enable-background:new 0 0 1009.5 839.6;" xml:space="preserve">
<style type="text/css">
	.st0{opacity:0.1;fill:#EE2C24;enable-background:new    ;}
	.st1{opacity:0.1;fill:#38D39F;enable-background:new    ;}
	.st2{clip-path:url(#XMLID_12_);}
	.st3{opacity:0.58;fill:#946B44;}
	.st4{fill:#FCBEAE;}
	.st5{fill:#FFDBD4;}
	.st6{fill:#FFFFFF;}
	.st7{fill:#534741;}
	.st8{fill:#302926;}
	.st9{fill:#FBB03B;}
	.st10{fill:#716F5E;}
	.st11{fill:#3F3C2A;}
</style>
<title>personalization</title>
<path class="st0" d="M585.3,133.6c-64.7-2.3-126.4-23.1-185.2-46S282.9,39.4,219.7,27.3c-40.6-7.8-87.1-8.9-119.8,12.9
	c-31.5,21-41.7,57.2-47.2,90.7c-4.1,25.3-6.5,51.9,4.7,75.5c7.8,16.4,21.7,30.2,31.4,46C122.3,307,98.6,374.5,62.4,428
	c-17,25.1-36.8,49-49.9,75.7c-13.1,26.7-19.2,57.3-7.7,84.5c11.4,27,38.5,47.2,67.9,61.5c59.7,29,130,37.2,198.6,41.9
	c151.8,10.4,304.5,5.9,456.7,1.4c56.3-1.7,112.9-3.4,168.3-12.1c30.8-4.8,62.6-12.5,84.9-31c28.4-23.5,35.4-63.4,16.4-92.9
	c-31.9-49.5-120-61.8-142.3-114.9c-12.3-29.2,0.3-61.8,18.2-88.9c38.2-58.2,102.3-109.2,105.7-175.7c2.3-45.7-28.5-91.4-76.1-113
	c-49.9-22.6-119.2-19.8-156,17.7C709.1,120.7,642.4,135.5,585.3,133.6z"/>
<ellipse class="st1" cx="184" cy="835.1" rx="26.9" ry="4.5"/>
<g id="Hand_shake">
	<defs>
		<rect id="XMLID_2_" x="0.8" y="-104.9" width="1010" height="1010"/>
	</defs>
	<clipPath id="XMLID_12_">
		<use xlink:href="#XMLID_2_"  style="overflow:visible;"/>
	</clipPath>
	<g id="XMLID_3_" class="st2">
		<path id="XMLID_183_" class="st3" d="M-115.8,405.8L-70.5,241L334,352.2v0l16.4,4.5l-1.5,5.4l40.3,11.1l-2,7.4l27-2.9
			c3.9-0.4,7.7-0.1,11.2,0.7c2.9-1.3,5.9-2.4,8.9-3.1l0-0.1l0.6-0.2l-0.1-0.2l23.5-7.6l26.2-8.8l0,0.3l25.5-8.2l0.1,0.2l112.7,11.8
			l40.1-10.8l-1.5-5.4l16.4-4.4v0l405-109.4l44.6,165L722.5,507l0,0l-16.4,4.4l0,0h0l0,0c-0.9-3.3-4.4-5.3-7.7-4.4l-34.3,9.3
			l-0.5-1.7l-24.7-2.1c-3.4-0.3-6.7,0.8-9.3,3l-0.9,0.7c-2.8,2.3-4.3,5.8-4.5,9.4c-0.3,4.2-1.8,8.3-4.6,11.8
			c-5.8,7.1-15.2,9.3-23.3,6.3l-4.6,3.9c1.8,6.3,0.6,13.3-3.9,18.8c-6.3,7.7-17,9.7-25.6,5.3l-3.4,2.8c2.7,6.8,1.7,14.7-3.2,20.8
			c-6.7,8.2-18.3,9.9-27,4.5l-2.6,2.2c3.8,7.2,3.3,16.2-2.2,22.9c-4.5,5.5-11.3,8.1-17.9,7.5c-7.6-0.7-15.2-0.4-22.8,0
			c-6.3,0.3-12.7-2.2-17-7.4c-5.1-6.1-6.1-14.3-3.2-21.3c0.6-1.6-0.1-3.3-1.6-3.9c-0.1,0-0.2-0.1-0.3-0.1c-0.7-0.3-1.5-0.2-2.2,0.1
			c-8.3,3.6-18.4,1.4-24.4-6c-2.7-3.3-4.2-7.2-4.5-11.2c-0.3-3.5-1.8-6.7-4.5-8.9l-0.7-0.6c-1.9-1.6-4.2-2.7-6.7-2.9
			c-5.3-0.5-10.4-3.1-14.1-7.6c-2.5-3-3.9-6.6-4.4-10.2l-35.1-28.8c-2.6-2.1-4.8-4.4-6.9-6.8c-1.1-1.3-2.8-1.9-4.5-1.6l0,0
			c-1.8,0.4-3.2,1.7-3.7,3.4l-0.9,3.4c-0.7,2.5-3.3,4-5.9,3.3l-17.1-4.7h0l-12.6-3.5c-3.3-0.9-6.8,1-7.7,4.4l0,0h0l-16.4-4.5v0
			L-115.8,405.8z"/>
		<g id="XMLID_169_">
			<g>
				<g id="XMLID_43_">
					<path class="st4" d="M477.4,350.9c-21.1-17.2-52.2-14.1-69.4,7L357.3,420c-17.2,21.1-14.1,52.2,7,69.4l83.1,68.3
						c21.1,17.2,52.2,14.1,69.4-7l50.7-62.1c17.2-21.1,14.1-52.2-7-69.4L477.4,350.9z"/>
				</g>
				<g id="XMLID_42_">
					<path class="st4" d="M325.4,486.5l101.2-20.1c18.7-1.9,32.3-18.6,30.4-37.3l-5.6-55c-1.9-18.7-18.6-32.3-37.3-30.4l-146.4,15.8
						L325.4,486.5z"/>
				</g>
			</g>
		</g>
		<g id="XMLID_114_">
			<g>
				<g id="XMLID_152_">
					<g id="XMLID_161_">
						<path class="st5" d="M530.3,336.6c21.2-17.2,52.2-13.9,69.4,7.2l48.3,60.1c17.2,21.2,13.9,52.2-7.2,69.4l-69.7,59
							c-21.2,17.2-52.2,13.9-69.4-7.2L453.4,465c-17.2-21.2-13.9-52.2,7.2-69.4L530.3,336.6z"/>
					</g>
					<g id="XMLID_159_">
						<path class="st5" d="M434.3,561.1c7.2,8.9,20.3,10.3,29.2,3l118.7-96.3c8.9-7.2,10.3-20.3,3-29.2l0,0
							c-7.2-8.9-20.3-10.3-29.2-3l-118.7,96.3C428.5,539.2,427.1,552.2,434.3,561.1L434.3,561.1z"/>
					</g>
					<g id="XMLID_158_">
						<path class="st5" d="M466.1,592.3c7.4,8.8,20.5,9.9,29.2,2.6l117.2-98c8.8-7.3,10-20.4,2.6-29.2l0,0
							c-7.4-8.8-20.5-10-29.2-2.6l-117.2,98C459.9,570.4,458.7,583.5,466.1,592.3L466.1,592.3z"/>
					</g>
					<g id="XMLID_156_">
						<path class="st5" d="M403.9,530c7.2,8.9,20.3,10.3,29.2,3l118.7-96.3c8.9-7.2,10.3-20.3,3-29.2l0,0c-7.2-8.9-20.3-10.3-29.2-3
							l-118.7,96.3C398,508,396.7,521,403.9,530L403.9,530z"/>
					</g>
					<g id="XMLID_155_">
						<path class="st5" d="M374.2,497.9c7.2,8.9,20.3,10.3,29.2,3L522,404.7c8.9-7.2,10.3-20.3,3-29.2l0,0
							c-7.2-8.9-20.3-10.3-29.2-3l-118.7,96.3C368.3,475.9,366.9,489,374.2,497.9L374.2,497.9z"/>
					</g>
					<g id="XMLID_153_">
						<path class="st5" d="M664.1,482L558,472.8c-20.1-2.1-34.7-20.1-32.6-40.2l6.2-59.1c2.1-20.1,20.1-34.7,40.2-32.6l106.1,9.1
							L664.1,482z"/>
					</g>
				</g>
				<g id="XMLID_143_">
					<g id="XMLID_147_">
						<g>
							<path id="XMLID_148_" class="st5" d="M484.5,326l-4.1,57.1c-1.7,19.8-19.2,34.5-39,32.7l-11.9-1.1c-0.5,0-1-0.1-1.5-0.2
								l6.4-71.8L484.5,326z"/>
						</g>
					</g>
					<g id="XMLID_146_">
						<polygon class="st5" points="453.4,381.3 520.7,366.4 510,318 434.8,342.3 						"/>
					</g>
					<g id="XMLID_144_">
						<path class="st5" d="M676,335.6l-166.6-17.4c-1.3,3.9-2.2,8-2.7,12.1c-4.2,40.7,35.8,78.3,89.4,83.8c28,2.9,54.1-3.5,73.3-16
							L676,335.6z"/>
					</g>
				</g>
			</g>
		</g>
		<g id="XMLID_104_">
			<g id="XMLID_106_">
				
					<rect id="XMLID_113_" x="642" y="317.4" transform="matrix(0.9654 -0.2607 0.2607 0.9654 -79.9688 190.937)" class="st6" width="75.8" height="159"/>
				
					<rect id="XMLID_110_" x="676.2" y="253.9" transform="matrix(0.9654 -0.2607 0.2607 0.9654 -57.5396 244.8877)" class="st7" width="436.6" height="170.9"/>
				
					<rect id="XMLID_107_" x="683.5" y="308.6" transform="matrix(0.9654 -0.2606 0.2606 0.9654 -78.7902 193.9788)" class="st8" width="17" height="170.9"/>
			</g>
			<path id="XMLID_105_" class="st9" d="M681.9,469.1c4.1-1.1,6.5-5.3,5.4-9.3c-1.1-4.1-5.3-6.5-9.3-5.4c-4.1,1.1-6.5,5.3-5.4,9.3
				C673.6,467.8,677.8,470.2,681.9,469.1z"/>
		</g>
		<g id="XMLID_69_">
			<g>
				<g id="XMLID_70_">
					<g>
						<path id="XMLID_71_" class="st4" d="M519.9,336.1l7.4,58c2.9,20.1,21.5,34,41.6,31.1l12.1-1.8c0.5-0.1,1-0.2,1.5-0.3
							L572,350.3L519.9,336.1z"/>
					</g>
				</g>
				<g id="XMLID_65_">
					<polygon class="st4" points="554.8,390.7 485.3,379.4 493.5,329.5 571.5,349.9 					"/>
				</g>
				<g id="XMLID_61_">
					<path class="st4" d="M325.4,356.8L494,329.6c1.6,3.9,2.7,8,3.4,12.2c6.6,41.2-32,81.7-86.2,90.5c-28.3,4.6-55.3-0.4-75.5-12.1
						L325.4,356.8z"/>
				</g>
			</g>
		</g>
		<g id="XMLID_62_">
			<g id="XMLID_64_">
				
					<rect id="XMLID_68_" x="252.1" y="367.8" transform="matrix(0.265 -0.9642 0.9642 0.265 -147.4887 617.9703)" class="st6" width="159" height="75.8"/>
				
					<rect id="XMLID_67_" x="31.8" y="128.9" transform="matrix(0.265 -0.9642 0.9642 0.265 -248.5492 368.2457)" class="st10" width="170.9" height="436.6"/>
				
					<rect id="XMLID_66_" x="234.1" y="394.3" transform="matrix(0.265 -0.9642 0.9642 0.265 -153.4973 604.1564)" class="st11" width="170.9" height="17"/>
			</g>
			<path id="XMLID_63_" class="st9" d="M329.6,476.1c-4-1.1-6.4-5.3-5.3-9.4c1.1-4.1,5.3-6.4,9.3-5.3c4.1,1.1,6.4,5.3,5.3,9.4
				C337.9,474.8,333.7,477.2,329.6,476.1z"/>
		</g>
		<path id="XMLID_59_" class="st4" d="M523.9,595.3c-7.3,8.9-20.3,10.2-29.2,3L470,577.8c-8.9-7.2-10.2-20.3-3-29.2l0,0
			c7.2-8.9,20.3-10.2,29.2-3l24.7,20.4C529.8,573.4,531.1,586.4,523.9,595.3L523.9,595.3z"/>
		<path id="XMLID_56_" class="st4" d="M555.7,565.7c-7.3,8.9-20.3,10.2-29.2,3l-24.7-20.4c-8.9-7.2-10.2-20.3-3-29.2l0,0
			c7.2-8.9,20.3-10.2,29.2-3l24.7,20.4C561.6,543.8,562.9,556.8,555.7,565.7L555.7,565.7z"/>
		<path id="XMLID_7_" class="st4" d="M587.9,536.8c-7.3,8.9-20.3,10.2-29.2,3L534,519.3c-8.9-7.2-10.2-20.3-3-29.2l0,0
			c7.2-8.9,20.3-10.2,29.2-3l24.7,20.4C593.8,514.8,595.1,527.9,587.9,536.8L587.9,536.8z"/>
		<path id="XMLID_4_" class="st4" d="M619.6,507.9c-7.3,8.9-20.3,10.2-29.2,3l-24.7-20.4c-8.9-7.2-10.2-20.3-3-29.2l0,0
			c7.2-8.9,20.3-10.2,29.2-3l24.7,20.4C625.5,485.9,626.9,499,619.6,507.9L619.6,507.9z"/>
	</g>
</g>
</svg>
