<svg id="Layer_1" data-name="Layer 1" xmlns="http://www.w3.org/2000/svg" xmlns:xlink="http://www.w3.org/1999/xlink" viewBox="0 0 737.94 737.94"><defs><style>.cls-1,.cls-2{stroke-miterlimit:10;}.cls-1{fill:url(#linear-gradient);stroke:url(#linear-gradient-2);}.cls-2{fill:none;stroke:#fff;stroke-width:6px;}.cls-3{fill:url(#linear-gradient-3);}.cls-4{fill:url(#linear-gradient-4);}.cls-5{fill:url(#linear-gradient-5);}.cls-6{fill:url(#linear-gradient-6);}.cls-7{fill:url(#linear-gradient-7);}.cls-8{fill:url(#linear-gradient-8);}.cls-9{fill:#fffaf1;}</style><linearGradient id="linear-gradient" x1="0.5" y1="368.92" x2="737.44" y2="368.92" gradientTransform="matrix(1, 0, 0, -1, 0, 737.89)" gradientUnits="userSpaceOnUse"><stop offset="0.1" stop-color="#ed1e24"/><stop offset="0.61" stop-color="#be3d26" stop-opacity="0.8"/><stop offset="0.86" stop-color="#be3d26"/></linearGradient><linearGradient id="linear-gradient-2" y1="368.92" x2="737.94" y2="368.92" gradientTransform="matrix(1, 0, 0, -1, 0, 737.89)" gradientUnits="userSpaceOnUse"><stop offset="0.06" stop-color="#bf1f48"/><stop offset="0.86" stop-color="#e71e25" stop-opacity="0.4"/></linearGradient><linearGradient id="linear-gradient-3" x1="594.91" y1="299.92" x2="640.85" y2="299.92" gradientTransform="matrix(1, 0, 0, -1, 0, 737.89)" gradientUnits="userSpaceOnUse"><stop offset="0" stop-color="#fff33b"/><stop offset="0.04" stop-color="#fee72e"/><stop offset="0.12" stop-color="#fed51b"/><stop offset="0.2" stop-color="#fdca10"/><stop offset="0.28" stop-color="#fdc70c"/><stop offset="0.67" stop-color="#f3903f"/><stop offset="0.89" stop-color="#ed683c"/><stop offset="1" stop-color="#e93e3a"/></linearGradient><linearGradient id="linear-gradient-4" x1="539.35" y1="317.92" x2="626.96" y2="317.92" xlink:href="#linear-gradient-3"/><linearGradient id="linear-gradient-5" x1="311.78" y1="404.92" x2="559.65" y2="404.92" xlink:href="#linear-gradient-3"/><linearGradient id="linear-gradient-6" x1="241.26" y1="543.42" x2="453.88" y2="543.42" xlink:href="#linear-gradient-3"/><linearGradient id="linear-gradient-7" x1="192.11" y1="508.17" x2="319.26" y2="508.17" xlink:href="#linear-gradient-3"/><linearGradient id="linear-gradient-8" x1="210.43" y1="164.16" x2="363.21" y2="164.16" gradientTransform="matrix(1, 0, 0, -1, -51.97, 685.92)" xlink:href="#linear-gradient-3"/></defs><title>avatar</title><circle class="cls-1" cx="368.97" cy="368.97" r="368.47"/><polygon class="cls-2" points="652.6 489.47 633.37 397.47 539.35 367.47 473.11 139.47 225.24 35.47 267.97 151.47 165.4 103.47 329.94 365.47 144.03 645.47 319.26 577.47 310.71 527.47 567.13 477.47 594.91 449.47 652.6 489.47"/><polygon class="cls-3" points="626.96 403.47 594.91 442.47 640.85 472.47 626.96 403.47"/><polygon class="cls-4" points="539.35 374.47 564.99 465.47 626.96 403.47 539.35 374.47"/><polygon class="cls-5" points="464.56 148.47 335.28 353.47 342.76 368.47 320.32 388.42 311.78 517.47 559.65 465.47 464.56 148.47"/><polygon class="cls-6" points="241.26 48.47 453.88 143.47 336.35 340.47 241.26 48.47"/><polygon class="cls-7" points="192.11 126.47 319.26 332.97 266.9 174.47 192.11 126.47"/><path class="cls-8" d="M311.24,409.48,158.46,634l142.63-59.5Q306.18,492,311.24,409.48Z" transform="translate(0 0)"/><path class="cls-9" d="M571.94,427" transform="translate(0 0)"/></svg>